# xmcd CD database file
#
# Track frame offsets:
#	150
#	20325
#	32322
#	54888
#	73754
#	94345
#	130853
#	158257
#	181739
#	198413
#	229157
#	244134
#	254769
#	274201
#
# Disc length: 3934 seconds
#
# Revision: 2
# Processed by: cddbd v1.5.2PL0 Copyright (c) Steve Scherf et al.
# Submitted via: CDex 1.51
#
DISCID=b60f5c0e
DTITLE=BETH HART - JOE BONAMASSA - Don't Explain(Limited Adition)
DYEAR=2011
DGENRE=Blues Rock
TTITLE0=Sinner's Prayer
TTITLE1=Chocolate Jesus
TTITLE2=Your Heart Is As Black As Night
TTITLE3=For My Friends
TTITLE4=Don't Explain
TTITLE5=I'd Rather Go Blind
TTITLE6=Something's Got A Hold On Me
TTITLE7=I'll Take Care Of You
TTITLE8=Well, Well
TTITLE9=Ain't No Way
TTITLE10=I'll Take Care Of You(Beth Hart Live Solo Acoustic)(Bonus)
TTITLE11=Chocolate Jesus(Beth Hart Live Solo Acoustic)(Bonus)
TTITLE12=LA Song(Beth Hart Live Solo Acoustic)(Bonus)
TTITLE13=At the bottom (live)
EXTD=YEAR: 2011
EXTT0=
EXTT1=
EXTT2=
EXTT3=
EXTT4=
EXTT5=
EXTT6=
EXTT7=
EXTT8=
EXTT9=
EXTT10=
EXTT11=
EXTT12=
EXTT13=
PLAYORDER=
